<mxfile host="draw.sloththe.dev" modified="2024-06-06T07:37:56.184Z" agent="Mozilla/5.0 (Windows NT 10.0; Win64; x64) AppleWebKit/537.36 (KHTML, like Gecko) Chrome/124.0.0.0 Safari/537.36" etag="_u_T-X47dB9T3YMVfoKK" version="24.4.13" type="device">
  <diagram name="Page-1" id="KFMVFOfb0OX40N9y83Ud">
    <mxGraphModel dx="521" dy="282" grid="1" gridSize="10" guides="1" tooltips="1" connect="1" arrows="1" fold="1" page="1" pageScale="1" pageWidth="850" pageHeight="1100" math="0" shadow="0">
      <root>
        <mxCell id="0" />
        <mxCell id="1" parent="0" />
        <mxCell id="pgimGLVrHDx9ozeGXuQR-1" value="Game Host" style="shape=umlActor;verticalLabelPosition=bottom;verticalAlign=top;html=1;outlineConnect=0;" vertex="1" parent="1">
          <mxGeometry x="40" y="40" width="40" height="70" as="geometry" />
        </mxCell>
        <mxCell id="pgimGLVrHDx9ozeGXuQR-2" value="Game Player" style="shape=umlActor;verticalLabelPosition=bottom;verticalAlign=top;html=1;outlineConnect=0;" vertex="1" parent="1">
          <mxGeometry x="40" y="160" width="40" height="70" as="geometry" />
        </mxCell>
      </root>
    </mxGraphModel>
  </diagram>
</mxfile>
